<svg xmlns="http://www.w3.org/2000/svg" xmlns:xlink="http://www.w3.org/1999/xlink" width="374.116" height="291.727" viewBox="0 0 374.116 291.727">
  <defs>
    <clipPath id="clip-path">
      <path id="Path_60" data-name="Path 60" d="M466.1,273.246c-.623-3.521-2.182-10.056-3.254-10.056,0,0-23.272-11.389-25.263-12.716s-6.782-.594-6.782-.594a2.151,2.151,0,0,0,.157.44c-.259-.333-.411-.524-.411-.524-.891,5-10.332,2.847-10.332,2.847-1.545.309-7.657,3.076-8.49,3.454.009-.018.016-.043.025-.059a4.955,4.955,0,0,0-1.99,1.991c-.664,1.327-11.613,27.539-11.613,27.539s3.65,9.954,5.64,10.617,10.188-24.154,10.188-24.154-.4-1.77-.869-4.134c2.177,9.319,5.782,20.248,5.782,20.248h23.866c-.332-.664-.309-14.931-.641-19.576a11.877,11.877,0,0,0-1.478-4.02c.609.831.983,1.337.983,1.337.424.818,17.859,6.7,23.186,8.477A1,1,0,0,0,466.1,273.246Z" fill="none"/>
    </clipPath>
  </defs>
  <g id="Group_30" data-name="Group 30" transform="translate(-319.907 -137.425)">
    <path id="Path_1" data-name="Path 1" d="M414.25,411.26C397.2,407.33,382.26,396.383,369.225,384c-18.257-17.347-33.953-38.378-42.549-62.791s-9.578-52.443.385-76.225c3.067-7.321,7.191-14.257,12.848-19.533,12.343-11.509,32.508-19.8,48.912-19.735,24.92.1,47.792,8.641,69.749,23.213,22.6,15,40.583,36.4,60.4,55.373,11.116,10.641,24.043,20.589,38.92,21.841,24.81,2.088,47.807-20.445,72.3-15.737,16.682,3.207,29.641,19.468,32.607,37.278s-2.941,36.41-13.233,50.76-24.613,24.869-39.652,33.177" fill="#f0f3fb" style="mix-blend-mode: multiply;isolation: isolate"/>
    <g id="Group_3" data-name="Group 3">
      <g id="Group_1" data-name="Group 1">
        <circle id="Ellipse_1" data-name="Ellipse 1" cx="44.91" cy="44.91" r="44.91" transform="translate(524.15 365.639) rotate(-45)" fill="#141753"/>
        <circle id="Ellipse_2" data-name="Ellipse 2" cx="42.844" cy="42.844" r="42.844" transform="translate(533.88 363.609) rotate(-45)" fill="#da82b4" stroke="#da82b4" stroke-miterlimit="10" stroke-width="4.03"/>
        <circle id="Ellipse_3" data-name="Ellipse 3" cx="33.58" cy="33.58" r="33.58" transform="translate(546.981 363.609) rotate(-45)" fill="none" stroke="#fff" stroke-miterlimit="10" stroke-width="1.026"/>
        <text id="_" data-name="$" transform="translate(581.891 378.055)" fill="#fff" font-size="41.882" font-family="SegoeUI, Segoe UI"><tspan x="0" y="0">$</tspan></text>
      </g>
      <g id="Group_2" data-name="Group 2">
        <circle id="Ellipse_4" data-name="Ellipse 4" cx="44.91" cy="44.91" r="44.91" transform="translate(576.093 400.983) rotate(-78.813)" fill="#141753"/>
        <circle id="Ellipse_5" data-name="Ellipse 5" cx="42.844" cy="42.844" r="42.844" transform="translate(579.942 339.83) rotate(-21.893)" fill="#da82b4" stroke="#da82b4" stroke-miterlimit="10" stroke-width="4.03"/>
        <circle id="Ellipse_6" data-name="Ellipse 6" cx="33.58" cy="33.58" r="33.58" transform="translate(597.099 391.311) rotate(-80.684)" fill="none" stroke="#fff" stroke-miterlimit="10" stroke-width="1.026"/>
        <text id="_2" data-name="$" transform="translate(623.092 378.055)" fill="#fff" font-size="41.882" font-family="SegoeUI, Segoe UI"><tspan x="0" y="0">$</tspan></text>
      </g>
    </g>
    <g id="Group_4" data-name="Group 4">
      <circle id="Ellipse_7" data-name="Ellipse 7" cx="4.623" cy="4.623" r="4.623" transform="translate(389.855 207.149)" fill="none" stroke="#97aae4" stroke-miterlimit="10" stroke-width="0.765"/>
      <path id="Path_2" data-name="Path 2" d="M584.128,294.981a3.527,3.527,0,1,1-3.528-3.528A3.528,3.528,0,0,1,584.128,294.981Z" fill="#97aae4"/>
      <path id="Path_3" data-name="Path 3" d="M581.076,156.594a3.527,3.527,0,1,1-3.527-3.528A3.528,3.528,0,0,1,581.076,156.594Z" fill="#c03b81" stroke="#c03b81" stroke-miterlimit="10" stroke-width="0.332" opacity="0.66"/>
      <path id="Path_4" data-name="Path 4" d="M604.253,307.189a5.2,5.2,0,1,1-5.2-5.2A5.2,5.2,0,0,1,604.253,307.189Z" fill="none" stroke="#97aae4" stroke-miterlimit="10" stroke-width="0.765"/>
      <path id="Path_5" data-name="Path 5" d="M593.428,143.005a5.2,5.2,0,1,1-5.2-5.2A5.2,5.2,0,0,1,593.428,143.005Z" fill="none" stroke="#97aae4" stroke-miterlimit="10" stroke-width="0.765"/>
      <path id="Path_6" data-name="Path 6" d="M397.1,225.55a1.908,1.908,0,1,0-1.908,1.907A1.908,1.908,0,0,0,397.1,225.55Z" fill="#ebb3d4" stroke="#ebb3d4" stroke-miterlimit="10" stroke-width="0.332"/>
      <path id="Path_7" data-name="Path 7" d="M415.415,166.419a1.908,1.908,0,1,0-1.907,1.907A1.907,1.907,0,0,0,415.415,166.419Z" fill="#ebb3d4" stroke="#ebb3d4" stroke-miterlimit="10" stroke-width="0.332"/>
      <circle id="Ellipse_8" data-name="Ellipse 8" cx="4.578" cy="4.578" r="4.578" transform="translate(431.056 199.99)" fill="#fff" opacity="0.98" style="mix-blend-mode: screen;isolation: isolate"/>
      <circle id="Ellipse_9" data-name="Ellipse 9" cx="2.432" cy="2.432" r="2.432" transform="translate(552.99 178.102)" fill="#fff" opacity="0.98" style="mix-blend-mode: screen;isolation: isolate"/>
      <circle id="Ellipse_10" data-name="Ellipse 10" cx="3.815" cy="3.815" r="3.815" transform="translate(415.797 152.304)" fill="none" stroke="#97aae4" stroke-miterlimit="10" stroke-width="0.765"/>
    </g>
    <g id="Group_16" data-name="Group 16">
      <g id="Group_5" data-name="Group 5">
        <path id="Path_8" data-name="Path 8" d="M401.989,411.062c-2.709-3.939-3.472-8.885-3.715-13.659-.422-8.289.537-16.745,3.716-24.411s8.7-14.5,16-18.438a46.336,46.336,0,0,1,3.537,18.676,72.613,72.613,0,0,1-2.776,17c-2.305,8.726-3.473,13.6-9.767,20.071" fill="#2e3269"/>
        <path id="Path_9" data-name="Path 9" d="M404.94,410.445c2.367-13.49,6.662-28.549,23.122-33.886a40.988,40.988,0,0,1-3.069,20.23c-2.8,6.3-7.25,10.523-13.391,13.656" fill="#404597"/>
        <path id="Path_10" data-name="Path 10" d="M394.948,410.352a17.356,17.356,0,0,0,3.673-.735,1.261,1.261,0,0,0,.839-.527,1.356,1.356,0,0,0-.014-.963c-.363-1.387-.481-3.253.819-3.856,1.253-.581,2.579.606,3.412,1.707.884,1.17,1.913,3.607,2.691,4.85-.3-1.17-.308-3.687.316-4.721a2.4,2.4,0,0,1,1.236-1.1,2.508,2.508,0,0,1,2.68,1.369c.564.926.816,2.018,1.41,2.924.781-1.918.745-4.054,1.05-6.1a18.269,18.269,0,0,1,3.5-8.317c.959-1.265,2.267-2.485,3.855-2.5,1.841-.014,3.343,1.712,3.645,3.528a9.22,9.22,0,0,1-1.107,5.323,27.639,27.639,0,0,1-4.993,7.289,5.163,5.163,0,0,0,3.374-1.785,6.176,6.176,0,0,1,3.277-2.013c1.3-.145,2.772,1.1,2.295,2.315-.166.424-.527.746-.716,1.161s-.1,1.036.342,1.144a1.047,1.047,0,0,0,.672-.146,13.582,13.582,0,0,1,3.742-1.243c2.484-.359,7.764,1.632,10.154,2.4" fill="#6a6fc4"/>
        <path id="Path_11" data-name="Path 11" d="M394.35,410.493c2.709-3.939,3.472-8.885,3.715-13.659.422-8.288-.537-16.745-3.716-24.411s-8.7-14.5-16-18.438a46.336,46.336,0,0,0-3.537,18.676,72.61,72.61,0,0,0,2.776,17c2.3,8.726,3.473,13.6,9.767,20.071" fill="#2e3269"/>
        <path id="Path_12" data-name="Path 12" d="M402.135,410.028c1.957-2.847,2.508-6.42,2.684-9.87a40.677,40.677,0,0,0-2.685-17.636A26.556,26.556,0,0,0,390.573,369.2a33.479,33.479,0,0,0-2.555,13.494,52.465,52.465,0,0,0,2.006,12.281c1.665,6.3,2.509,9.829,7.056,14.5" fill="#404597"/>
        <path id="Path_13" data-name="Path 13" d="M391.4,410.161c-2.367-13.49-6.662-28.55-23.122-33.887a40.99,40.99,0,0,0,3.069,20.231c2.8,6.3,7.25,10.522,13.391,13.656" fill="#404597"/>
        <path id="Path_14" data-name="Path 14" d="M401.391,410.352a17.356,17.356,0,0,1-3.673-.735,1.261,1.261,0,0,1-.839-.527,1.356,1.356,0,0,1,.014-.963c.363-1.387.481-3.253-.819-3.856-1.253-.581-2.579.606-3.412,1.707-.884,1.17-1.913,3.607-2.691,4.85.3-1.17.309-3.687-.316-4.721a2.4,2.4,0,0,0-1.236-1.1,2.508,2.508,0,0,0-2.68,1.369c-.564.926-.816,2.018-1.41,2.924-.781-1.918-.745-4.054-1.05-6.1a18.269,18.269,0,0,0-3.5-8.317c-.959-1.265-2.267-2.485-3.855-2.5-1.841-.014-3.343,1.712-3.645,3.528a9.22,9.22,0,0,0,1.107,5.323,27.639,27.639,0,0,0,4.993,7.289A5.163,5.163,0,0,1,375,406.735a6.176,6.176,0,0,0-3.277-2.013c-1.3-.145-2.772,1.1-2.3,2.315.166.424.527.746.716,1.161s.1,1.036-.342,1.144a1.047,1.047,0,0,1-.672-.146,13.582,13.582,0,0,0-3.742-1.243c-2.484-.359-7.764,1.632-10.154,2.4" fill="#6a6fc4"/>
      </g>
      <g id="Group_14" data-name="Group 14">
        <rect id="Rectangle_1" data-name="Rectangle 1" width="147.515" height="264.047" rx="27.558" transform="translate(422.558 146.079)" fill="#a2b4e9"/>
        <g id="Group_7" data-name="Group 7">
          <g id="Group_6" data-name="Group 6">
            <ellipse id="Ellipse_11" data-name="Ellipse 11" cx="3.763" cy="3.695" rx="3.763" ry="3.695" transform="translate(466.205 161.579)" fill="none" stroke="#fff" stroke-miterlimit="10" stroke-width="0.382"/>
            <path id="Path_15" data-name="Path 15" d="M527.7,167.818H480.4a2.289,2.289,0,0,1-2.289-2.289h0a2.289,2.289,0,0,1,2.289-2.289h47.3a2.288,2.288,0,0,1,2.289,2.289h0A2.289,2.289,0,0,1,527.7,167.818Z" fill="none" stroke="#fff" stroke-miterlimit="10" stroke-width="0.382"/>
          </g>
          <circle id="Ellipse_12" data-name="Ellipse 12" cx="8.138" cy="8.138" r="8.138" transform="translate(497.944 386.03)" fill="none" stroke="#fff" stroke-miterlimit="10" stroke-width="0.382"/>
        </g>
        <rect id="Rectangle_2" data-name="Rectangle 2" width="147.515" height="201.235" transform="translate(422.558 180.481)" fill="#fff" opacity="0.13"/>
        <path id="Path_16" data-name="Path 16" d="M570.072,180.481V381.716H422.558" fill="#fff" opacity="0.13"/>
        <path id="Path_17" data-name="Path 17" d="M570.362,291.911H487.918a7.067,7.067,0,0,1-7.067-7.066h0a7.067,7.067,0,0,1,7.067-7.067h82.444a7.067,7.067,0,0,1,7.067,7.067h0A7.067,7.067,0,0,1,570.362,291.911Z" fill="#fff" opacity="0.98" style="mix-blend-mode: screen;isolation: isolate"/>
        <path id="Path_18" data-name="Path 18" d="M570.362,317.822H487.918a7.067,7.067,0,0,1-7.067-7.066h0a7.067,7.067,0,0,1,7.067-7.067h82.444a7.067,7.067,0,0,1,7.067,7.067h0A7.067,7.067,0,0,1,570.362,317.822Z" fill="#fff" opacity="0.98" style="mix-blend-mode: screen;isolation: isolate"/>
        <path id="Path_19" data-name="Path 19" d="M516.928,292.547a6.658,6.658,0,1,1-6.658-6.658A6.658,6.658,0,0,1,516.928,292.547Z" fill="#c03b81"/>
        <circle id="Ellipse_13" data-name="Ellipse 13" cx="8.92" cy="8.92" r="8.92" transform="translate(499.67 299.385) rotate(-77.825)" fill="none" stroke="#fff" stroke-miterlimit="10" stroke-width="0.625"/>
        <path id="Path_20" data-name="Path 20" d="M518.2,297.062l4.825-1.664a.508.508,0,0,0-.015-.965l-10.637-3.3a.509.509,0,0,0-.633.647l3.581,10.651a.508.508,0,0,0,.966-.008l1.594-5.032A.509.509,0,0,1,518.2,297.062Z" fill="#141753"/>
        <g id="Group_13" data-name="Group 13">
          <g id="Group_12" data-name="Group 12">
            <circle id="Ellipse_14" data-name="Ellipse 14" cx="35.92" cy="35.92" r="35.92" transform="translate(464.433 191.148)" fill="#7b90d2" opacity="0.66" style="mix-blend-mode: multiply;isolation: isolate"/>
            <g id="Group_8" data-name="Group 8">
              <rect id="Rectangle_3" data-name="Rectangle 3" width="36.348" height="25.078" rx="4.237" transform="translate(500.149 214.139)" fill="#c03b81"/>
              <rect id="Rectangle_4" data-name="Rectangle 4" width="38.039" height="6.762" transform="translate(499.304 218.648)" fill="#141753"/>
              <path id="Path_21" data-name="Path 21" d="M532.48,235.2h-9.329a.954.954,0,0,1-.953-.954v-.06a.953.953,0,0,1,.959-.953l9.328.059a.953.953,0,0,1,.947.918h0A.953.953,0,0,1,532.48,235.2Z" fill="#fff"/>
            </g>
            <g id="Group_11" data-name="Group 11">
              <g id="Group_9" data-name="Group 9">
                <circle id="Ellipse_15" data-name="Ellipse 15" cx="11.402" cy="11.402" r="11.402" transform="matrix(0.17, -0.985, 0.985, 0.17, 475.119, 205.332)" fill="#141753"/>
                <circle id="Ellipse_16" data-name="Ellipse 16" cx="10.877" cy="10.877" r="10.877" transform="matrix(0.231, -0.973, 0.973, 0.231, 476.932, 203.598)" fill="#da82b4" stroke="#da82b4" stroke-miterlimit="10" stroke-width="1.023"/>
                <circle id="Ellipse_17" data-name="Ellipse 17" cx="8.525" cy="8.525" r="8.525" transform="translate(479.765 201.855) rotate(-76.668)" fill="none" stroke="#fff" stroke-miterlimit="10" stroke-width="0.261"/>
                <text id="_3" data-name="$" transform="translate(486.833 199.193)" fill="#fff" font-size="10.633" font-family="SegoeUI, Segoe UI"><tspan x="0" y="0">$</tspan></text>
              </g>
              <rect id="Rectangle_5" data-name="Rectangle 5" width="40.045" height="56.833" rx="5.422" transform="translate(470.62 199.405)" fill="#141753"/>
              <rect id="Rectangle_6" data-name="Rectangle 6" width="30.305" height="11.334" rx="1.117" transform="translate(475.188 219.493)" fill="#a2b4e9"/>
              <g id="Group_10" data-name="Group 10">
                <circle id="Ellipse_18" data-name="Ellipse 18" cx="2.318" cy="2.318" r="2.318" transform="translate(477.652 235.98)" fill="#fff"/>
                <path id="Path_22" data-name="Path 22" d="M492.935,238.3a2.318,2.318,0,1,1-2.318-2.319A2.318,2.318,0,0,1,492.935,238.3Z" fill="#fff"/>
                <circle id="Ellipse_19" data-name="Ellipse 19" cx="2.318" cy="2.318" r="2.318" transform="translate(498.946 235.98)" fill="#fff"/>
                <circle id="Ellipse_20" data-name="Ellipse 20" cx="2.318" cy="2.318" r="2.318" transform="translate(477.652 244.355)" fill="#fff"/>
                <path id="Path_23" data-name="Path 23" d="M492.935,246.673a2.318,2.318,0,1,1-2.318-2.318A2.318,2.318,0,0,1,492.935,246.673Z" fill="#fff"/>
                <circle id="Ellipse_21" data-name="Ellipse 21" cx="2.318" cy="2.318" r="2.318" transform="translate(498.946 244.355)" fill="#c03b81"/>
              </g>
              <line id="Line_1" data-name="Line 1" x2="30.911" transform="translate(475.12 211.164)" fill="none" stroke="#fff" stroke-linecap="round" stroke-linejoin="round" stroke-width="1.162"/>
            </g>
          </g>
          <circle id="Ellipse_22" data-name="Ellipse 22" cx="35.661" cy="35.661" r="35.661" transform="translate(443.773 199.498) rotate(-25.206)" fill="none" stroke="#fff" stroke-miterlimit="10" stroke-width="1.732" style="mix-blend-mode: soft-light;isolation: isolate"/>
        </g>
      </g>
      <path id="Path_24" data-name="Path 24" d="M435.28,410.087c-7.466-2.22-11.45-10.374-13.045-18-.895-4.275-1.31-8.786-.028-12.962s4.56-7.95,8.845-8.8c2.7-.535,5.494.112,8.129.921a66.026,66.026,0,0,1,22.355,11.972c7.4,6.05,13.51,13.732,21.7,18.663,15.611,9.4,36.5,6.754,51.736-3.237,7.718-5.059,14.225-11.743,21.591-17.3s16.092-10.1,25.315-9.791c4.474.15,9.438,1.923,11.161,6.054a11.934,11.934,0,0,1,.414,6.505c-1.743,10.623-9.517,19.159-17.43,26.459" fill="#fff" opacity="0.53" style="mix-blend-mode: soft-light;isolation: isolate"/>
      <g id="Group_15" data-name="Group 15">
        <path id="Path_25" data-name="Path 25" d="M560.464,410.823c-2.676-3.892-3.429-8.777-3.67-13.494a55.61,55.61,0,0,1,3.671-24.113c3.14-7.572,8.589-14.326,15.806-18.214a45.77,45.77,0,0,1,3.494,18.449,71.8,71.8,0,0,1-2.742,16.792c-2.277,8.62-3.431,13.438-9.649,19.827" fill="#2e3269"/>
        <path id="Path_26" data-name="Path 26" d="M563.379,410.775c2.338-13.326,6.58-28.2,22.84-33.474a40.482,40.482,0,0,1-3.032,19.984c-2.768,6.222-7.161,10.395-13.228,13.49" fill="#404597"/>
        <path id="Path_27" data-name="Path 27" d="M553.508,411.245a17.182,17.182,0,0,0,3.629-.726,1.247,1.247,0,0,0,.829-.521,1.339,1.339,0,0,0-.014-.951c-.359-1.37-.476-3.214.809-3.809,1.237-.574,2.548.6,3.37,1.687.873,1.154,1.89,3.563,2.658,4.79-.3-1.156-.3-3.642.312-4.664a2.372,2.372,0,0,1,1.222-1.09,2.479,2.479,0,0,1,2.647,1.352c.557.915.806,1.994,1.393,2.889.772-1.894.736-4.005,1.037-6.028a18.05,18.05,0,0,1,3.46-8.217c.948-1.249,2.24-2.454,3.808-2.466,1.819-.013,3.3,1.691,3.6,3.485a9.1,9.1,0,0,1-1.094,5.259,27.276,27.276,0,0,1-4.931,7.2,5.1,5.1,0,0,0,3.332-1.763,6.1,6.1,0,0,1,3.237-1.988c1.282-.143,2.738,1.085,2.267,2.286-.164.419-.52.738-.707,1.147s-.1,1.023.338,1.131a1.042,1.042,0,0,0,.664-.145,13.435,13.435,0,0,1,3.7-1.228c2.453-.355,7.669,1.612,10.03,2.37" fill="#6a6fc4"/>
        <path id="Path_28" data-name="Path 28" d="M552.918,410.823c2.675-3.892,3.429-8.777,3.67-13.494a55.625,55.625,0,0,0-3.671-24.113c-3.14-7.572-8.589-14.326-15.806-18.214a45.769,45.769,0,0,0-3.494,18.449,71.748,71.748,0,0,0,2.742,16.792c2.277,8.62,3.431,13.438,9.648,19.827" fill="#2e3269"/>
        <path id="Path_29" data-name="Path 29" d="M560.608,411.2c1.933-2.811,2.478-6.341,2.651-9.748a40.172,40.172,0,0,0-2.652-17.422,26.237,26.237,0,0,0-11.42-13.16,33.072,33.072,0,0,0-2.524,13.329,51.825,51.825,0,0,0,1.981,12.132c1.645,6.228,2.479,9.709,6.971,14.326" fill="#404597"/>
        <path id="Path_30" data-name="Path 30" d="M550,410.775c-2.338-13.326-6.581-28.2-22.841-33.474a40.494,40.494,0,0,0,3.032,19.984c2.769,6.222,7.162,10.395,13.228,13.49" fill="#404597"/>
        <path id="Path_31" data-name="Path 31" d="M559.873,411.245a17.184,17.184,0,0,1-3.628-.726,1.247,1.247,0,0,1-.829-.521,1.339,1.339,0,0,1,.014-.951c.359-1.37.475-3.214-.809-3.809-1.238-.574-2.548.6-3.371,1.687-.873,1.154-1.89,3.563-2.657,4.79.3-1.156.3-3.642-.313-4.664a2.375,2.375,0,0,0-1.221-1.09,2.479,2.479,0,0,0-2.648,1.352c-.556.915-.806,1.994-1.392,2.889-.772-1.894-.736-4.005-1.037-6.028a18.061,18.061,0,0,0-3.46-8.217c-.948-1.249-2.24-2.454-3.808-2.466-1.819-.013-3.3,1.691-3.6,3.485a9.1,9.1,0,0,0,1.093,5.259,27.3,27.3,0,0,0,4.932,7.2,5.1,5.1,0,0,1-3.332-1.763,6.1,6.1,0,0,0-3.237-1.988c-1.282-.143-2.738,1.085-2.268,2.286.165.419.52.738.708,1.147s.1,1.023-.339,1.131a1.044,1.044,0,0,1-.664-.145,13.418,13.418,0,0,0-3.7-1.228c-2.454-.355-7.669,1.612-10.03,2.37" fill="#6a6fc4"/>
      </g>
    </g>
    <g id="Group_26" data-name="Group 26">
      <g id="Group_18" data-name="Group 18">
        <path id="Path_32" data-name="Path 32" d="M429.38,229.944c0-1.356-2.815-4.253-4.07-4.778-3.436-1.437-7.384-1.065-10.955-.005a14.894,14.894,0,0,0-5.109,2.454,7.413,7.413,0,0,0-2.868,4.762,11.274,11.274,0,0,0-.015,2.189c.364,4.886.364,6.769-1.141,9.49,0,0-1.633,3.868-13.243,7.006s-14.119,11.3-11.3,22.591,17.571,10.982,20.081,9.727,4.707.941,5.962,1.883,7.113,3.53,11.506,1.02c0,0-7.741-25.808-6.8-26.436s7.531-4.079,8.786-5.02a4.068,4.068,0,0,1,2.2-.941Z" fill="#394888"/>
        <path id="Path_33" data-name="Path 33" d="M415.927,237.074a.315.315,0,0,1-.273.363,2.523,2.523,0,0,0-2.495,2.486c0,2,2.783,2.008,3.919,1.929.328-.023.778-.007.9.3a70.863,70.863,0,0,1,3.531,12.675s7.3,11.025,10.057-1.045c0,0-3.877-10.147-3.563-11.4.12-.06,5-3.094,2.421-10.416-2.428-6.9-8.15-5.609-9.42-5.217C419.932,227.075,414.563,228.275,415.927,237.074Z" fill="#ebcdc1"/>
        <g id="Group_17" data-name="Group 17">
          <path id="Path_34" data-name="Path 34" d="M428.182,242.258a11.141,11.141,0,0,1-4.028,1.143c1.5.962,3.065,1.053,3.487.421A3.627,3.627,0,0,0,428.182,242.258Z" fill="#db877e"/>
          <path id="Path_35" data-name="Path 35" d="M425.193,233.687c.13.323.065.653-.144.736s-.484-.11-.613-.433-.064-.653.145-.737S425.064,233.364,425.193,233.687Z" fill="#394888"/>
          <path id="Path_36" data-name="Path 36" d="M428.141,232.213c.13.323.065.653-.144.736s-.484-.11-.613-.433-.064-.653.145-.737S428.012,231.89,428.141,232.213Z" fill="#394888"/>
          <path id="Path_37" data-name="Path 37" d="M428.031,230.336a2.917,2.917,0,0,0-.9.077,6.015,6.015,0,0,0-.865.42h0a.833.833,0,0,1,.577-1.027l.163-.046a.832.832,0,0,1,1.027.576Z" fill="#394888"/>
          <path id="Path_38" data-name="Path 38" d="M423.658,231.558a6.093,6.093,0,0,0-.767.508,6.279,6.279,0,0,0-.53.79h0a.834.834,0,0,1,0-1.178l.12-.12a.832.832,0,0,1,1.177,0Z" fill="#394888"/>
          <path id="Path_39" data-name="Path 39" d="M415.818,240.631a1.042,1.042,0,1,1-1.038-1.808" fill="#db877e"/>
          <path id="Path_40" data-name="Path 40" d="M429.022,234.96l-3.561,1.907s1.484,1.441,2.925.509A1.714,1.714,0,0,0,429.022,234.96Z" fill="#fff"/>
          <path id="Path_41" data-name="Path 41" d="M424.189,237.418a.848.848,0,1,0-.847.848A.847.847,0,0,0,424.189,237.418Z" fill="#e5b29f"/>
          <path id="Path_42" data-name="Path 42" d="M430.717,234.2a.848.848,0,1,0-.848.848A.848.848,0,0,0,430.717,234.2Z" fill="#e5b29f"/>
          <path id="Path_43" data-name="Path 43" d="M426.55,235.672l-.1-2.1,1.663,1.309" fill="#db877e"/>
        </g>
        <path id="Path_44" data-name="Path 44" d="M421.148,225.964c.176-.036,3.03,9.227-5.791,11.378C415.357,237.342,412.008,227.828,421.148,225.964Z" fill="#394888"/>
        <path id="Path_45" data-name="Path 45" d="M418.412,225.813s7.666,2.616,10.432,2.556C428.844,228.369,423.342,221.4,418.412,225.813Z" fill="#394888"/>
      </g>
      <g id="Group_19" data-name="Group 19">
        <path id="Path_46" data-name="Path 46" d="M376.969,271.159s-2.433-2.625-1.7-2.993,3.08,2.4,5.365,3C380.636,271.169,377.631,271.747,376.969,271.159Z" fill="#db877e"/>
        <path id="Path_47" data-name="Path 47" d="M398.318,285.822l-14.75-13.447a4.668,4.668,0,0,0-2.932-1.206c-2.268-.106-4.654.254-7.821-2.045-4.56-3.31.93,5.407,5.417,6.731a8.22,8.22,0,0,1,2.722.221c1.177.368,14.625,19.984,22.642,20.867C403.6,296.943,399.3,288.767,398.318,285.822Z" fill="#ebcdc1"/>
      </g>
      <g id="Group_21" data-name="Group 21">
        <path id="Path_48" data-name="Path 48" d="M463.191,263.059s11.554-14.09,15.482-18.632,7.508-12.653,11.558-15.755c0,0,2.8-2.349-2.322,6.465,0,0,4.285,1.12,3.645,2.651s-.659,5.964-4.673,5.861c0,0-13.194,23.387-19.5,28.654-.589.492-1.823,2.007-1.526,1.187Z" fill="#ebcdc1"/>
        <path id="Path_49" data-name="Path 49" d="M430.548,249.8s11.234,14.128,11.566,18.773.309,18.912.641,19.576H418.889s-8.587-26.031-7.26-32c0,0,6.928-3.167,8.587-3.5C420.216,252.643,431.056,262.936,430.548,249.8Z" fill="#c03b81"/>
        <path id="Path_50" data-name="Path 50" d="M411.751,256.038a4.955,4.955,0,0,0-1.99,1.991c-.664,1.327-11.613,27.539-11.613,27.539s3.65,9.954,5.64,10.617,10.188-24.154,10.188-24.154S410.756,257.7,411.751,256.038Z" fill="#c03b81" stroke="#c03b81" stroke-miterlimit="10" stroke-width="0.332"/>
        <path id="Path_51" data-name="Path 51" d="M430.8,249.88s4.791-.733,6.782.594,25.263,12.716,25.263,12.716c1.072,0,2.631,6.535,3.254,10.056a1,1,0,0,1-1.3,1.117c-5.327-1.78-22.762-7.659-23.186-8.477C441.619,265.886,431.141,251.745,430.8,249.88Z" fill="#c03b81" stroke="#c03b81" stroke-miterlimit="10" stroke-width="0.332"/>
        <path id="Path_52" data-name="Path 52" d="M487.771,235.151c-.218-.033-2.287,2.483-2.066,2.924s1.843,4.494,3.179,4.2c1.144-.255,1.717-1.622,2.511-4.038C491.395,238.234,492.185,235.813,487.771,235.151Z" fill="#db877e"/>
        <path id="Path_53" data-name="Path 53" d="M487.886,235.213c-.218-.033-1.839,2.206-1.618,2.648s1.5,3.7,2.648,3.775c1.19.075,2.416-1.4,2.765-3.89C491.681,237.746,492.3,235.874,487.886,235.213Z" fill="#ebcdc1"/>
        <path id="Path_54" data-name="Path 54" d="M483.216,237.971s5.516-.221,5.148.809-6.546,1.692-6.546,1.692" fill="#ebcdc1" stroke="#db877e" stroke-miterlimit="10" stroke-width="0.382"/>
        <g id="Group_20" data-name="Group 20">
          <path id="Path_55" data-name="Path 55" d="M413.508,268.785l5.6,19.583h20.092Z" fill="#9f336d"/>
          <path id="Path_56" data-name="Path 56" d="M414.146,272.285c-.609,6.1-8.864,22.876-8.864,22.876l8.165-27.289A10.4,10.4,0,0,1,414.146,272.285Z" fill="#9f336d"/>
          <path id="Path_57" data-name="Path 57" d="M441.766,266.253,438.309,253.6l11.622,15.888Z" fill="#9f336d"/>
        </g>
        <path id="Path_58" data-name="Path 58" d="M463.949,264.207l4.154,7.037s.243,1.027-1.78,2.2Z" fill="#db877e"/>
      </g>
      <g id="Group_24" data-name="Group 24">
        <g id="Group_23" data-name="Group 23" clip-path="url(#clip-path)">
          <g id="Group_22" data-name="Group 22">
            <circle id="Ellipse_23" data-name="Ellipse 23" cx="6.867" cy="6.867" r="6.867" transform="translate(406.768 254.797)" fill="#cc6ba1"/>
            <path id="Path_59" data-name="Path 59" d="M441.8,268.531c-.008-.041-.012-.08-.018-.12-1.013-3.659-2.028-7.318-3.117-10.955a8.9,8.9,0,1,0,3.78,17.366A33.232,33.232,0,0,0,441.8,268.531Z" fill="#cc6ba1"/>
            <circle id="Ellipse_24" data-name="Ellipse 24" cx="6.612" cy="6.612" r="6.612" transform="translate(418.594 278.831)" fill="#cc6ba1"/>
            <circle id="Ellipse_25" data-name="Ellipse 25" cx="7.884" cy="7.884" r="7.884" transform="translate(449.416 256.7) rotate(-13.328)" fill="#cc6ba1"/>
            <circle id="Ellipse_26" data-name="Ellipse 26" cx="9.41" cy="9.41" r="9.41" transform="translate(392.399 273.236)" fill="#cc6ba1"/>
          </g>
        </g>
      </g>
      <g id="Group_25" data-name="Group 25">
        <path id="Path_61" data-name="Path 61" d="M424.991,400.9l.662,2.8s1.029,1.839,1.691,1.986c1.205.268,3.237-2.206,3.237-2.206l.257-2.722Z" fill="#d29389"/>
        <path id="Path_62" data-name="Path 62" d="M430.644,403.343s.883-.073,1.03.221c.126.251.946,5.045,1.185,6.454a.331.331,0,0,1-.327.387H416.091a.791.791,0,0,1-.79-.745h0a.792.792,0,0,1,.417-.745l10-5.351s.736,1.618,1.692,1.986S430.644,403.343,430.644,403.343Z" fill="#fff"/>
        <path id="Path_63" data-name="Path 63" d="M420.8,288.145s-3.382,1.941-7.942,17.388,1.765,48.547,1.765,48.547a30.887,30.887,0,0,1,1.434,7.061c.184,3.384.037,29.936,6.952,39.94h10.731s-.434-25.817-3.67-42c0,0-.011-33.836,1.845-41.192l1.3-.647s8.183,31.1,9.948,38.161-6.032,30.9-2.5,45.9h11.824s7.448-37.811,6.271-47.815-3.217-35.952-17.718-65.346Z" fill="#141753"/>
        <path id="Path_64" data-name="Path 64" d="M433.663,398.81c-4.376-.08-7.132.207-11.508.127" fill="none" stroke="#394888" stroke-linecap="round" stroke-linejoin="round" stroke-width="0.083" stroke-dasharray="4.589"/>
        <path id="Path_65" data-name="Path 65" d="M430.066,359.082s-.011-33.836,1.845-41.192l1.3-.647s8.183,31.1,9.948,38.161-6.032,30.9-2.5,45.9h11.824s7.448-37.811,6.271-47.815-3.217-35.952-17.718-65.346H420.8s-3.382,1.941-7.942,17.388,1.765,48.547,1.765,48.547a30.887,30.887,0,0,1,1.434,7.061" fill="#141753"/>
        <path id="Path_66" data-name="Path 66" d="M442.437,401.29l-.124,2.293s1.306,4.437,2.8,3.175a21,21,0,0,0,2.67-2.989l.714-2.463Z" fill="#d29389"/>
        <path id="Path_67" data-name="Path 67" d="M442.377,403.838l-.736-.051a.332.332,0,0,0-.354.308l-.393,5.64a.331.331,0,0,0,.331.355h15.83a.756.756,0,0,0,.755-.8h0a.756.756,0,0,0-.334-.581l-8.921-5.971s-2.979,3.531-3.935,3.531S442.377,403.838,442.377,403.838Z" fill="#fff"/>
        <path id="Path_68" data-name="Path 68" d="M440.148,398.365c5.532,0,7.376.191,12.844.381" fill="none" stroke="#394888" stroke-linecap="round" stroke-linejoin="round" stroke-width="0.083" stroke-dasharray="4.589"/>
        <path id="Path_69" data-name="Path 69" d="M423.045,288.623s-7.812,9.641-7.884,21.872c-.255,43.108,9.83,90.4,9.83,90.4" fill="none" stroke="#f3faf9" stroke-linecap="round" stroke-linejoin="round" stroke-width="0.191" stroke-dasharray="4.589"/>
        <path id="Path_70" data-name="Path 70" d="M438.686,288.5s17.549,43.362,17.676,64.98c1.144,6.485-6.358,47.559-6.358,47.559" fill="none" stroke="#f3faf9" stroke-linecap="round" stroke-linejoin="round" stroke-width="0.191" stroke-dasharray="4.589"/>
        <path id="Path_71" data-name="Path 71" d="M441.035,288.145l-27.337,15.1s2.179-9.476,7.1-15.1Z" fill="#394888" opacity="0.51" style="mix-blend-mode: multiply;isolation: isolate"/>
      </g>
    </g>
    <g id="Group_29" data-name="Group 29">
      <g id="Group_27" data-name="Group 27">
        <circle id="Ellipse_27" data-name="Ellipse 27" cx="18.058" cy="18.058" r="18.058" transform="translate(351.22 245.486) rotate(-45)" fill="#141753"/>
        <circle id="Ellipse_28" data-name="Ellipse 28" cx="17.227" cy="17.227" r="17.227" transform="translate(362.268 227.443)" fill="#da82b4" stroke="#da82b4" stroke-miterlimit="10" stroke-width="1.62"/>
        <circle id="Ellipse_29" data-name="Ellipse 29" cx="13.502" cy="13.502" r="13.502" transform="translate(365.993 231.168)" fill="none" stroke="#fff" stroke-miterlimit="10" stroke-width="0.413"/>
        <text id="_4" data-name="$" transform="translate(374.437 250.478)" fill="#fff" font-size="16.84" font-family="SegoeUI, Segoe UI"><tspan x="0" y="0">$</tspan></text>
      </g>
      <g id="Group_28" data-name="Group 28">
        <circle id="Ellipse_30" data-name="Ellipse 30" cx="7.615" cy="7.615" r="7.615" transform="translate(446.139 169.952) rotate(-22.39)" fill="#141753"/>
        <circle id="Ellipse_31" data-name="Ellipse 31" cx="7.265" cy="7.265" r="7.265" transform="translate(448.5 179.156) rotate(-76.759)" fill="#da82b4" stroke="#da82b4" stroke-miterlimit="10" stroke-width="0.683"/>
        <path id="Path_72" data-name="Path 72" d="M462.929,173.748a5.694,5.694,0,1,1-5.694-5.694A5.694,5.694,0,0,1,462.929,173.748Z" fill="none" stroke="#fff" stroke-miterlimit="10" stroke-width="0.174"/>
        <text id="_5" data-name="$" transform="translate(455.103 176.199)" fill="#fff" font-size="7.102" font-family="SegoeUI, Segoe UI"><tspan x="0" y="0">$</tspan></text>
      </g>
    </g>
  </g>
</svg>
