<svg width="853" height="537" viewBox="0 0 853 537" fill="none" xmlns="http://www.w3.org/2000/svg">
<circle cx="229" cy="900" r="471" stroke="#FFDEF1" stroke-width="100"/>
<circle cx="332" cy="521" r="471" stroke="#FFDEF1" stroke-width="100"/>
<g style="mix-blend-mode:multiply">
<path d="M260.784 469.788C233.895 463.591 210.334 446.329 189.777 426.804C160.985 399.451 136.231 366.289 122.675 327.794C109.119 289.299 107.57 245.101 123.282 207.601C128.119 196.057 134.623 185.12 143.544 176.801C163.01 158.653 194.811 145.58 220.681 145.682C259.981 145.84 296.051 159.308 330.679 182.285C366.32 205.937 394.68 239.681 425.932 269.598C443.463 286.377 463.85 302.063 487.311 304.037C526.438 307.33 562.705 271.799 601.332 279.223C627.64 284.28 648.077 309.92 652.755 338.004C657.432 366.087 648.117 395.415 631.886 418.043C615.655 440.67 593.07 457.257 569.353 470.357" fill="#F0F3FB"/>
</g>
<path d="M584.345 447.925C612.004 420.27 612.004 375.433 584.345 347.778C556.686 320.123 511.842 320.123 484.183 347.778C456.524 375.433 456.524 420.27 484.183 447.925C511.842 475.58 556.686 475.58 584.345 447.925Z" fill="#141753"/>
<path d="M592.778 442.421C619.165 416.038 619.165 373.263 592.778 346.881C566.391 320.498 523.61 320.498 497.224 346.881C470.837 373.263 470.837 416.038 497.224 442.421C523.61 468.804 566.391 468.804 592.778 442.421Z" fill="#DA82B4" stroke="#DA82B4" stroke-width="4.03" stroke-miterlimit="10"/>
<path d="M582.447 432.092C603.128 411.414 603.128 377.888 582.447 357.21C561.766 336.532 528.235 336.532 507.554 357.21C486.873 377.888 486.873 411.414 507.554 432.092C528.235 452.77 561.766 452.77 582.447 432.092Z" stroke="white" stroke-width="1.026" stroke-miterlimit="10"/>
<path d="M542.667 382.72C542.667 381.466 542.224 380.409 541.338 379.551C540.466 378.692 538.986 377.915 536.9 377.219C533.997 376.333 531.877 375.181 530.54 373.763C529.218 372.332 528.557 370.518 528.557 368.323C528.557 366.088 529.204 364.254 530.5 362.822C531.808 361.391 533.601 360.539 535.878 360.266V355.787H538.925V360.286C541.215 360.6 542.995 361.561 544.263 363.17C545.544 364.779 546.185 366.981 546.185 369.775H542.422C542.422 367.853 541.965 366.326 541.052 365.195C540.138 364.063 538.905 363.497 537.35 363.497C535.728 363.497 534.487 363.92 533.628 364.765C532.77 365.597 532.34 366.762 532.34 368.262C532.34 369.653 532.79 370.764 533.69 371.595C534.603 372.413 536.096 373.163 538.168 373.845C540.254 374.513 541.877 375.256 543.036 376.074C544.208 376.878 545.067 377.819 545.612 378.896C546.171 379.973 546.451 381.234 546.451 382.679C546.451 384.983 545.755 386.838 544.365 388.242C542.988 389.646 541.052 390.478 538.557 390.737V394.643H535.53V390.737C532.995 390.505 531.004 389.605 529.559 388.037C528.127 386.456 527.412 384.315 527.412 381.616H531.195C531.195 383.511 531.693 384.97 532.688 385.992C533.683 387.015 535.094 387.526 536.921 387.526C538.707 387.526 540.111 387.097 541.134 386.238C542.156 385.379 542.667 384.206 542.667 382.72Z" fill="white"/>
<path d="M668.719 411.591C676.308 373.224 651.352 335.971 612.98 328.383C574.607 320.795 537.348 345.747 529.759 384.113C522.17 422.48 547.125 459.734 585.498 467.322C623.871 474.909 661.13 449.958 668.719 411.591Z" fill="#141753"/>
<path d="M635.171 457.335C669.796 443.423 686.586 404.08 672.671 369.46C658.757 334.84 619.408 318.053 584.783 331.965C550.158 345.877 533.368 385.221 547.283 419.841C561.197 454.461 600.546 471.248 635.171 457.335Z" fill="#DA82B4" stroke="#DA82B4" stroke-width="4.03" stroke-miterlimit="10"/>
<path d="M662.236 403.223C666.971 374.366 647.412 347.135 618.55 342.401C589.688 337.667 562.453 357.223 557.719 386.081C552.984 414.938 572.543 442.169 601.405 446.903C630.267 451.637 657.502 432.081 662.236 403.223Z" stroke="white" stroke-width="1.026" stroke-miterlimit="10"/>
<path d="M607.644 382.72C607.644 381.466 607.2 380.409 606.314 379.551C605.442 378.692 603.963 377.915 601.877 377.219C598.973 376.333 596.853 375.181 595.517 373.763C594.194 372.332 593.533 370.518 593.533 368.323C593.533 366.088 594.181 364.254 595.476 362.822C596.784 361.391 598.577 360.539 600.854 360.266V355.787H603.901V360.286C606.192 360.6 607.971 361.561 609.239 363.17C610.52 364.779 611.161 366.981 611.161 369.775H607.398C607.398 367.853 606.941 366.326 606.028 365.195C605.115 364.063 603.881 363.497 602.326 363.497C600.704 363.497 599.463 363.92 598.605 364.765C597.746 365.597 597.316 366.762 597.316 368.262C597.316 369.653 597.766 370.764 598.666 371.595C599.579 372.413 601.072 373.163 603.145 373.845C605.23 374.513 606.853 375.256 608.012 376.074C609.184 376.878 610.043 377.819 610.588 378.896C611.147 379.973 611.427 381.234 611.427 382.679C611.427 384.983 610.732 386.838 609.341 388.242C607.964 389.646 606.028 390.478 603.533 390.737V394.643H600.506V390.737C597.971 390.505 595.98 389.605 594.535 388.037C593.103 386.456 592.388 384.315 592.388 381.616H596.171C596.171 383.511 596.669 384.97 597.664 385.992C598.659 387.015 600.07 387.526 601.897 387.526C603.683 387.526 605.087 387.097 606.11 386.238C607.132 385.379 607.644 384.206 607.644 382.72Z" fill="white"/>
<path d="M229.602 162.521C233.629 162.521 236.893 159.258 236.893 155.232C236.893 151.206 233.629 147.942 229.602 147.942C225.576 147.942 222.312 151.206 222.312 155.232C222.312 159.258 225.576 162.521 229.602 162.521Z" stroke="#97AAE4" stroke-width="0.765" stroke-miterlimit="10"/>
<path d="M528.69 286.437C528.69 287.537 528.363 288.612 527.752 289.526C527.141 290.44 526.272 291.153 525.256 291.574C524.239 291.994 523.121 292.104 522.042 291.89C520.963 291.675 519.972 291.146 519.195 290.368C518.417 289.59 517.887 288.599 517.672 287.521C517.458 286.442 517.568 285.324 517.989 284.308C518.409 283.292 519.122 282.423 520.037 281.812C520.951 281.201 522.026 280.874 523.126 280.874C524.602 280.874 526.017 281.46 527.06 282.503C528.104 283.547 528.69 284.962 528.69 286.437Z" fill="#97AAE4"/>
<path opacity="0.66" d="M523.877 68.226C523.877 69.3259 523.55 70.401 522.939 71.3153C522.327 72.2297 521.458 72.9423 520.442 73.363C519.426 73.7837 518.307 73.8936 517.228 73.6788C516.15 73.4641 515.159 72.9342 514.381 72.1564C513.603 71.3786 513.074 70.3876 512.859 69.3088C512.645 68.2301 512.755 67.1119 513.176 66.0958C513.597 65.0797 514.31 64.2112 515.225 63.6002C516.139 62.9891 517.215 62.663 518.315 62.663C519.79 62.6634 521.205 63.2497 522.248 64.2929C523.291 65.3362 523.877 66.7509 523.877 68.226Z" fill="#C03B81" stroke="#C03B81" stroke-width="0.332" stroke-miterlimit="10"/>
<path d="M560.428 305.687C560.428 307.308 559.947 308.894 559.046 310.242C558.145 311.59 556.864 312.641 555.366 313.262C553.867 313.883 552.218 314.045 550.628 313.729C549.037 313.412 547.576 312.631 546.429 311.485C545.282 310.338 544.501 308.877 544.184 307.286C543.868 305.696 544.03 304.047 544.651 302.549C545.272 301.051 546.323 299.77 547.671 298.869C549.02 297.968 550.606 297.487 552.227 297.487C554.402 297.487 556.488 298.351 558.026 299.889C559.564 301.427 560.428 303.512 560.428 305.687V305.687Z" stroke="#97AAE4" stroke-width="0.765" stroke-miterlimit="10"/>
<path d="M543.357 46.7986C543.357 48.4203 542.876 50.0056 541.974 51.354C541.073 52.7024 539.793 53.7533 538.294 54.3739C536.796 54.9945 535.147 55.1569 533.556 54.8405C531.965 54.5242 530.504 53.7432 529.357 52.5965C528.21 51.4498 527.429 49.9888 527.113 48.3983C526.796 46.8077 526.959 45.1591 527.579 43.6608C528.2 42.1626 529.251 40.882 530.6 39.981C531.948 39.0801 533.534 38.5992 535.156 38.5992C537.331 38.5992 539.417 39.4631 540.955 41.0008C542.493 42.5385 543.357 44.624 543.357 46.7986V46.7986Z" stroke="#97AAE4" stroke-width="0.765" stroke-miterlimit="10"/>
<path d="M233.737 176.957C233.738 176.362 233.561 175.78 233.231 175.285C232.901 174.79 232.431 174.404 231.881 174.176C231.331 173.948 230.726 173.889 230.142 174.004C229.558 174.12 229.022 174.407 228.601 174.827C228.18 175.248 227.893 175.784 227.777 176.368C227.661 176.952 227.72 177.557 227.948 178.106C228.176 178.656 228.562 179.126 229.056 179.457C229.551 179.787 230.133 179.964 230.728 179.964C231.526 179.964 232.291 179.647 232.855 179.083C233.42 178.519 233.737 177.755 233.737 176.957Z" fill="#EBB3D4" stroke="#EBB3D4" stroke-width="0.332" stroke-miterlimit="10"/>
<path d="M262.621 83.7182C262.621 83.123 262.445 82.5411 262.115 82.0461C261.784 81.5512 261.314 81.1653 260.764 80.9374C260.214 80.7095 259.609 80.6498 259.025 80.7658C258.441 80.8818 257.905 81.1684 257.484 81.5893C257.063 82.0101 256.777 82.5463 256.661 83.1301C256.545 83.7138 256.604 84.3189 256.832 84.8687C257.06 85.4185 257.446 85.8884 257.941 86.2188C258.436 86.5493 259.018 86.7255 259.614 86.7252C260.411 86.7252 261.176 86.4084 261.74 85.8445C262.304 85.2806 262.621 84.5157 262.621 83.7182Z" fill="#EBB3D4" stroke="#EBB3D4" stroke-width="0.332" stroke-miterlimit="10"/>
<g style="mix-blend-mode:screen" opacity="0.98">
<path d="M294.507 151.091C298.495 151.091 301.727 147.859 301.727 143.872C301.727 139.885 298.495 136.654 294.507 136.654C290.52 136.654 287.288 139.885 287.288 143.872C287.288 147.859 290.52 151.091 294.507 151.091Z" fill="white"/>
</g>
<g style="mix-blend-mode:screen" opacity="0.98">
<path d="M483.419 109.81C485.537 109.81 487.255 108.093 487.255 105.975C487.255 103.857 485.537 102.14 483.419 102.14C481.301 102.14 479.584 103.857 479.584 105.975C479.584 108.093 481.301 109.81 483.419 109.81Z" fill="white"/>
</g>
<path d="M269.24 73.4926C272.563 73.4926 275.256 70.7993 275.256 67.477C275.256 64.1547 272.563 61.4615 269.24 61.4615C265.917 61.4615 263.223 64.1547 263.223 67.477C263.223 70.7993 265.917 73.4926 269.24 73.4926Z" stroke="#97AAE4" stroke-width="0.765" stroke-miterlimit="10"/>
<path d="M241.448 469.475C237.175 463.264 235.972 455.465 235.589 447.938C234.923 434.867 236.436 421.534 241.449 409.446C246.462 397.358 255.169 386.582 266.682 380.373C270.557 389.698 272.456 399.725 272.26 409.821C271.87 418.899 270.4 427.897 267.882 436.627C264.247 450.386 262.405 458.072 252.479 468.275" fill="#2E3269"/>
<path d="M246.101 468.503C249.834 447.231 256.608 423.486 282.566 415.071C283.676 425.942 282.01 436.917 277.726 446.97C273.31 456.903 266.292 463.562 256.608 468.503" fill="#404597"/>
<path d="M230.343 468.356C232.31 468.18 234.253 467.791 236.136 467.197C236.401 467.155 236.655 467.06 236.883 466.917C237.11 466.774 237.306 466.587 237.459 466.366C237.638 465.874 237.63 465.334 237.437 464.847C236.865 462.66 236.678 459.718 238.729 458.767C240.705 457.851 242.796 459.723 244.11 461.459C245.504 463.304 247.126 467.146 248.353 469.106C247.88 467.262 247.868 463.293 248.852 461.662C249.275 460.871 249.966 460.257 250.801 459.928C251.644 459.782 252.512 459.914 253.274 460.303C254.036 460.692 254.651 461.318 255.027 462.086C255.917 463.547 256.314 465.268 257.251 466.697C258.483 463.673 258.426 460.305 258.907 457.078C259.621 452.314 261.519 447.805 264.427 443.964C265.939 441.969 268.002 440.046 270.506 440.022C273.41 440 275.778 442.722 276.255 445.585C276.53 448.495 275.921 451.42 274.509 453.978C272.517 458.207 269.859 462.088 266.635 465.472C268.703 465.248 270.607 464.241 271.956 462.657C273.296 461.076 275.107 459.964 277.124 459.483C279.174 459.254 281.495 461.218 280.743 463.133C280.481 463.802 279.912 464.31 279.614 464.964C279.316 465.618 279.456 466.598 280.153 466.768C280.522 466.813 280.896 466.732 281.213 466.538C283.074 465.601 285.062 464.941 287.114 464.578C291.032 464.012 299.358 467.151 303.128 468.362" fill="#6A6FC4"/>
<path d="M229.4 468.578C233.673 462.367 234.876 454.568 235.259 447.041C235.925 433.972 234.412 420.637 229.399 408.549C224.385 396.461 215.678 385.685 204.166 379.475C200.291 388.801 198.392 398.828 198.588 408.924C198.978 418.001 200.448 427 202.966 435.73C206.593 449.489 208.443 457.175 218.369 467.378" fill="#2E3269"/>
<path d="M241.678 467.845C244.764 463.356 245.633 457.722 245.911 452.282C246.574 442.813 245.128 433.315 241.676 424.473C238.17 415.598 231.738 408.187 223.444 403.467C220.645 410.205 219.273 417.45 219.415 424.744C219.697 431.302 220.759 437.803 222.578 444.109C225.204 454.043 226.535 459.608 233.706 466.973" fill="#404597"/>
<path d="M224.748 468.055C221.015 446.783 214.242 423.037 188.284 414.621C187.174 425.493 188.839 436.468 193.123 446.522C197.539 456.456 204.557 463.113 214.242 468.055" fill="#404597"/>
<path d="M240.504 468.356C238.537 468.18 236.595 467.791 234.712 467.197C234.447 467.155 234.193 467.06 233.965 466.917C233.738 466.774 233.542 466.587 233.389 466.366C233.21 465.874 233.218 465.334 233.411 464.847C233.983 462.66 234.169 459.718 232.119 458.767C230.143 457.851 228.052 459.723 226.738 461.459C225.344 463.304 223.721 467.146 222.494 469.106C222.968 467.262 222.982 463.293 221.996 461.662C221.573 460.871 220.882 460.257 220.047 459.928C219.204 459.782 218.336 459.914 217.574 460.303C216.812 460.692 216.197 461.318 215.82 462.086C214.931 463.547 214.534 465.268 213.597 466.697C212.365 463.673 212.422 460.305 211.941 457.078C211.227 452.314 209.329 447.805 206.421 443.964C204.909 441.969 202.846 440.046 200.342 440.022C197.438 440 195.07 442.722 194.593 445.585C194.318 448.495 194.927 451.42 196.339 453.978C198.33 458.207 200.989 462.088 204.213 465.472C202.142 465.248 200.235 464.239 198.884 462.652C197.544 461.071 195.733 459.959 193.716 459.478C191.666 459.25 189.345 461.213 190.089 463.129C190.351 463.797 190.92 464.305 191.218 464.959C191.516 465.614 191.376 466.593 190.679 466.763C190.31 466.808 189.937 466.727 189.619 466.533C187.758 465.596 185.77 464.936 183.718 464.573C179.801 464.007 171.474 467.146 167.705 468.357" fill="#6A6FC4"/>
<path d="M463.064 51.6458H317.346C293.344 51.6458 273.886 71.1008 273.886 95.0997V424.546C273.886 448.545 293.344 467.999 317.346 467.999H463.064C487.067 467.999 506.525 448.545 506.525 424.546V95.0997C506.525 71.1008 487.067 51.6458 463.064 51.6458Z" fill="#A2B4E9"/>
<path d="M348.654 87.7391C351.931 87.7391 354.588 85.1306 354.588 81.9128C354.588 78.695 351.931 76.0864 348.654 76.0864C345.376 76.0864 342.719 78.695 342.719 81.9128C342.719 85.1306 345.376 87.7391 348.654 87.7391Z" stroke="white" stroke-width="0.382" stroke-miterlimit="10"/>
<path d="M439.7 85.9242H365.106C364.148 85.9242 363.23 85.5439 362.553 84.867C361.876 84.1902 361.496 83.2721 361.496 82.3149C361.496 81.3576 361.876 80.4396 362.553 79.7627C363.23 79.0858 364.148 78.7055 365.106 78.7055H439.7C440.174 78.7053 440.644 78.7985 441.082 78.9798C441.52 79.1612 441.918 79.427 442.253 79.7622C442.588 80.0974 442.854 80.4954 443.036 80.9334C443.217 81.3714 443.31 81.8408 443.31 82.3149C443.31 83.2721 442.93 84.1902 442.253 84.867C441.576 85.5439 440.658 85.9242 439.7 85.9242V85.9242Z" stroke="white" stroke-width="0.382" stroke-miterlimit="10"/>
<path d="M405.607 455.669C412.696 455.669 418.442 449.924 418.442 442.837C418.442 435.75 412.696 430.005 405.607 430.005C398.519 430.005 392.773 435.75 392.773 442.837C392.773 449.924 398.519 455.669 405.607 455.669Z" stroke="white" stroke-width="0.382" stroke-miterlimit="10"/>
<path opacity="0.13" d="M506.525 105.891H273.886V423.202H506.525V105.891Z" fill="white"/>
<path opacity="0.13" d="M506.523 105.891V423.202H273.886" fill="white"/>
<g style="mix-blend-mode:screen" opacity="0.98">
<path d="M506.98 281.596H376.962C374.006 281.596 371.172 280.422 369.082 278.333C366.992 276.243 365.817 273.409 365.817 270.454C365.817 267.499 366.991 264.665 369.081 262.575C371.171 260.485 374.006 259.311 376.962 259.311H506.98C509.936 259.311 512.771 260.485 514.861 262.575C516.951 264.665 518.125 267.499 518.125 270.454C518.125 273.409 516.95 276.243 514.86 278.333C512.77 280.422 509.936 281.596 506.98 281.596Z" fill="white"/>
</g>
<g style="mix-blend-mode:screen" opacity="0.98">
<path d="M506.98 322.453H376.962C374.006 322.453 371.172 321.279 369.082 319.19C366.992 317.1 365.817 314.266 365.817 311.311C365.817 308.356 366.991 305.521 369.081 303.432C371.171 301.342 374.006 300.168 376.962 300.168H506.98C509.936 300.168 512.771 301.342 514.861 303.432C516.951 305.521 518.125 308.356 518.125 311.311C518.125 314.266 516.95 317.1 514.86 319.19C512.77 321.279 509.936 322.453 506.98 322.453Z" fill="white"/>
</g>
<path d="M422.712 282.599C422.712 284.675 422.096 286.705 420.943 288.432C419.789 290.158 418.149 291.504 416.23 292.298C414.312 293.093 412.2 293.301 410.164 292.896C408.127 292.491 406.256 291.491 404.787 290.023C403.319 288.554 402.319 286.684 401.914 284.647C401.509 282.611 401.717 280.5 402.511 278.581C403.306 276.663 404.652 275.023 406.379 273.87C408.105 272.716 410.135 272.101 412.212 272.101C414.997 272.101 417.668 273.207 419.637 275.175C421.606 277.144 422.712 279.815 422.712 282.599Z" fill="#C03B81"/>
<path d="M425.964 285.565C427.602 277.972 422.774 270.488 415.18 268.85C407.585 267.212 400.101 272.039 398.462 279.632C396.824 287.226 401.652 294.709 409.246 296.348C416.841 297.986 424.325 293.158 425.964 285.565Z" stroke="white" stroke-width="0.625" stroke-miterlimit="10"/>
<path d="M424.718 289.718L432.327 287.095C432.487 287.039 432.625 286.935 432.722 286.797C432.818 286.659 432.869 286.494 432.866 286.325C432.864 286.156 432.808 285.993 432.707 285.858C432.606 285.723 432.465 285.623 432.304 285.573L415.529 280.369C415.388 280.326 415.238 280.322 415.095 280.358C414.952 280.395 414.821 280.47 414.718 280.575C414.615 280.68 414.543 280.812 414.51 280.956C414.477 281.1 414.484 281.25 414.53 281.39L420.178 298.184C420.231 298.345 420.335 298.484 420.472 298.582C420.61 298.68 420.775 298.732 420.944 298.731C421.113 298.729 421.278 298.675 421.414 298.574C421.55 298.474 421.65 298.333 421.701 298.172L424.215 290.237C424.252 290.117 424.318 290.008 424.405 289.918C424.492 289.828 424.6 289.759 424.718 289.718Z" fill="#141753"/>
<g style="mix-blend-mode:multiply" opacity="0.66">
<path d="M396.573 235.99C427.858 235.99 453.22 210.632 453.22 179.351C453.22 148.07 427.858 122.711 396.573 122.711C365.287 122.711 339.925 148.07 339.925 179.351C339.925 210.632 365.287 235.99 396.573 235.99Z" fill="#7B90D2"/>
</g>
<path d="M446.891 158.964H402.933C399.242 158.964 396.251 161.955 396.251 165.645V191.826C396.251 195.516 399.242 198.507 402.933 198.507H446.891C450.582 198.507 453.573 195.516 453.573 191.826V165.645C453.573 161.955 450.582 158.964 446.891 158.964Z" fill="#C03B81"/>
<path d="M454.908 166.074H394.918V176.736H454.908V166.074Z" fill="#141753"/>
<path d="M447.238 192.173H432.526C432.127 192.173 431.745 192.014 431.463 191.732C431.181 191.45 431.023 191.068 431.023 190.669V190.574C431.023 190.376 431.062 190.18 431.139 189.997C431.215 189.814 431.326 189.648 431.467 189.508C431.607 189.369 431.774 189.258 431.958 189.183C432.141 189.108 432.337 189.07 432.536 189.072L447.246 189.165C447.634 189.167 448.006 189.319 448.284 189.588C448.562 189.858 448.726 190.225 448.74 190.612C448.748 190.814 448.715 191.016 448.643 191.205C448.571 191.394 448.462 191.566 448.321 191.712C448.181 191.858 448.013 191.974 447.827 192.053C447.641 192.132 447.441 192.173 447.238 192.173Z" fill="white"/>
<path d="M395.258 133.481C396.946 123.7 390.385 114.403 380.603 112.715C370.821 111.027 361.522 117.587 359.834 127.368C358.146 137.148 364.707 146.445 374.489 148.133C384.271 149.821 393.57 143.261 395.258 133.481Z" fill="#141753"/>
<path d="M396.98 133.579C399.168 124.362 393.47 115.117 384.252 112.929C375.034 110.741 365.787 116.438 363.599 125.655C361.411 134.871 367.109 144.117 376.327 146.305C385.545 148.493 394.791 142.795 396.98 133.579Z" fill="#DA82B4" stroke="#DA82B4" stroke-width="1.023" stroke-miterlimit="10"/>
<path d="M393.369 132.714C395.081 125.49 390.612 118.246 383.387 116.534C376.162 114.822 368.917 119.29 367.204 126.514C365.492 133.738 369.961 140.982 377.186 142.694C384.411 144.406 391.656 139.938 393.369 132.714Z" stroke="white" stroke-width="0.261" stroke-miterlimit="10"/>
<path d="M379.695 126.684C379.695 126.365 379.583 126.097 379.358 125.879C379.136 125.661 378.761 125.463 378.231 125.287C377.494 125.062 376.956 124.769 376.616 124.41C376.281 124.046 376.113 123.586 376.113 123.028C376.113 122.461 376.277 121.995 376.606 121.632C376.938 121.268 377.393 121.052 377.971 120.983V119.846H378.745V120.988C379.326 121.068 379.778 121.312 380.1 121.72C380.425 122.129 380.588 122.688 380.588 123.397H379.633C379.633 122.909 379.517 122.521 379.285 122.234C379.053 121.947 378.74 121.803 378.345 121.803C377.933 121.803 377.618 121.91 377.4 122.125C377.182 122.336 377.073 122.632 377.073 123.013C377.073 123.366 377.187 123.648 377.416 123.859C377.648 124.067 378.027 124.257 378.553 124.43C379.082 124.6 379.494 124.789 379.789 124.996C380.086 125.2 380.304 125.439 380.443 125.713C380.585 125.986 380.656 126.306 380.656 126.673C380.656 127.258 380.479 127.729 380.126 128.085C379.776 128.442 379.285 128.653 378.652 128.719V129.71H377.883V128.719C377.239 128.66 376.734 128.432 376.367 128.033C376.004 127.632 375.822 127.089 375.822 126.403H376.782C376.782 126.884 376.909 127.255 377.161 127.514C377.414 127.774 377.772 127.904 378.236 127.904C378.69 127.904 379.046 127.795 379.306 127.577C379.565 127.359 379.695 127.061 379.695 126.684Z" fill="white"/>
<path d="M404.284 135.731H358.233C353.51 135.731 349.682 139.559 349.682 144.281V216.797C349.682 221.519 353.51 225.346 358.233 225.346H404.284C409.007 225.346 412.835 221.519 412.835 216.797V144.281C412.835 139.559 409.007 135.731 404.284 135.731Z" fill="#141753"/>
<path d="M402.917 167.406H358.648C357.675 167.406 356.886 168.195 356.886 169.167V183.517C356.886 184.489 357.675 185.278 358.648 185.278H402.917C403.89 185.278 404.679 184.489 404.679 183.517V169.167C404.679 168.195 403.89 167.406 402.917 167.406Z" fill="#A2B4E9"/>
<path d="M364.428 200.713C366.447 200.713 368.083 199.077 368.083 197.058C368.083 195.04 366.447 193.403 364.428 193.403C362.409 193.403 360.772 195.04 360.772 197.058C360.772 199.077 362.409 200.713 364.428 200.713Z" fill="white"/>
<path d="M384.874 197.061C384.874 197.784 384.659 198.491 384.257 199.092C383.855 199.692 383.284 200.161 382.616 200.437C381.948 200.714 381.213 200.786 380.504 200.644C379.795 200.503 379.144 200.155 378.633 199.644C378.122 199.133 377.774 198.481 377.633 197.772C377.492 197.063 377.564 196.329 377.841 195.661C378.118 194.993 378.586 194.422 379.188 194.021C379.789 193.619 380.495 193.405 381.218 193.405C381.699 193.405 382.174 193.499 382.618 193.683C383.061 193.867 383.464 194.136 383.804 194.476C384.143 194.815 384.413 195.219 384.596 195.662C384.78 196.106 384.874 196.581 384.874 197.061Z" fill="white"/>
<path d="M398.009 200.713C400.028 200.713 401.665 199.077 401.665 197.058C401.665 195.04 400.028 193.403 398.009 193.403C395.99 193.403 394.354 195.04 394.354 197.058C394.354 199.077 395.99 200.713 398.009 200.713Z" fill="white"/>
<path d="M364.428 213.919C366.447 213.919 368.083 212.283 368.083 210.264C368.083 208.245 366.447 206.609 364.428 206.609C362.409 206.609 360.772 208.245 360.772 210.264C360.772 212.283 362.409 213.919 364.428 213.919Z" fill="white"/>
<path d="M384.874 210.264C384.874 210.987 384.66 211.694 384.258 212.295C383.856 212.896 383.285 213.364 382.617 213.641C381.949 213.918 381.214 213.99 380.505 213.849C379.796 213.708 379.145 213.36 378.633 212.849C378.122 212.337 377.774 211.686 377.633 210.977C377.492 210.268 377.564 209.533 377.841 208.865C378.118 208.197 378.586 207.627 379.187 207.225C379.789 206.823 380.495 206.609 381.218 206.609C381.698 206.609 382.174 206.704 382.617 206.887C383.061 207.071 383.464 207.34 383.803 207.68C384.143 208.019 384.412 208.422 384.596 208.865C384.779 209.309 384.874 209.784 384.874 210.264Z" fill="white"/>
<path d="M398.009 213.919C400.028 213.919 401.665 212.283 401.665 210.264C401.665 208.245 400.028 206.609 398.009 206.609C395.99 206.609 394.354 208.245 394.354 210.264C394.354 212.283 395.99 213.919 398.009 213.919Z" fill="#C03B81"/>
<path d="M356.779 154.273H405.527" stroke="white" stroke-width="1.162" stroke-linecap="round" stroke-linejoin="round"/>
<g style="mix-blend-mode:soft-light">
<path d="M406.129 213.684C434.232 200.458 446.29 166.958 433.062 138.86C419.835 110.761 386.33 98.7048 358.227 111.93C330.125 125.156 318.066 158.656 331.294 186.754C344.522 214.853 378.026 226.91 406.129 213.684Z" stroke="white" stroke-width="1.732" stroke-miterlimit="10"/>
</g>
<g style="mix-blend-mode:soft-light" opacity="0.53">
<path d="M293.949 467.938C282.175 464.437 275.892 451.58 273.376 439.555C271.965 432.814 271.311 425.701 273.332 419.117C275.354 412.532 280.524 406.581 287.281 405.241C291.539 404.397 295.946 405.417 300.101 406.693C312.962 410.649 324.935 417.059 335.356 425.571C347.026 435.11 356.662 447.223 369.578 454.999C394.197 469.821 427.14 465.648 451.168 449.895C463.34 441.917 473.602 431.378 485.219 422.616C496.835 413.853 510.596 406.69 525.142 407.177C532.197 407.414 540.026 410.209 542.743 416.723C543.908 420.015 544.134 423.567 543.396 426.98C540.647 443.731 528.387 457.19 515.908 468.701" fill="white"/>
</g>
<path d="M491.371 469.099C487.15 462.962 485.963 455.259 485.583 447.821C484.675 434.875 486.652 421.889 491.372 409.799C496.324 397.86 504.917 387.21 516.299 381.079C520.127 390.291 522.003 400.196 521.809 410.17C521.422 419.136 519.971 428.024 517.485 436.648C513.894 450.24 512.074 457.837 502.268 467.911" fill="#2E3269"/>
<path d="M495.968 469.023C499.655 448.01 506.345 424.557 531.988 416.24C533.084 426.979 531.439 437.821 527.206 447.752C522.841 457.563 515.913 464.143 506.345 469.023" fill="#404597"/>
<path d="M480.401 469.764C482.344 469.59 484.263 469.206 486.124 468.619C486.386 468.578 486.637 468.483 486.862 468.342C487.086 468.201 487.28 468.016 487.431 467.798C487.608 467.312 487.6 466.778 487.409 466.298C486.843 464.138 486.658 461.23 488.685 460.292C490.636 459.387 492.703 461.238 494 462.952C495.376 464.772 496.98 468.57 498.191 470.505C497.718 468.682 497.718 464.762 498.683 463.151C499.101 462.367 499.785 461.758 500.611 461.432C501.443 461.289 502.3 461.419 503.053 461.803C503.805 462.187 504.413 462.805 504.785 463.564C505.663 465.007 506.056 466.708 506.982 468.119C508.199 465.133 508.143 461.804 508.617 458.614C509.324 453.907 511.2 449.452 514.074 445.658C515.569 443.688 517.607 441.788 520.079 441.769C522.948 441.749 525.284 444.436 525.757 447.264C526.029 450.139 525.428 453.029 524.031 455.557C522.065 459.734 519.44 463.567 516.255 466.91C518.297 466.688 520.177 465.694 521.51 464.13C522.834 462.568 524.623 461.47 526.615 460.995C528.636 460.77 530.933 462.706 530.19 464.6C529.931 465.261 529.37 465.764 529.075 466.409C528.78 467.053 528.917 468.022 529.608 468.192C529.973 468.235 530.341 468.154 530.655 467.963C532.496 467.038 534.461 466.385 536.49 466.027C540.359 465.467 548.585 468.569 552.308 469.764" fill="#6A6FC4"/>
<path d="M479.47 469.099C483.689 462.962 484.878 455.259 485.258 447.821C486.165 434.875 484.188 421.889 479.469 409.799C474.517 397.86 465.923 387.21 454.542 381.079C450.714 390.291 448.838 400.196 449.032 410.17C449.418 419.136 450.869 428.024 453.356 436.648C456.947 450.24 458.767 457.837 468.571 467.911" fill="#2E3269"/>
<path d="M491.598 469.693C494.646 465.261 495.506 459.694 495.779 454.322C496.435 444.968 495.007 435.586 491.596 426.851C488.132 418.085 481.779 410.764 473.586 406.1C470.821 412.756 469.466 419.912 469.606 427.117C469.885 433.595 470.933 440.017 472.73 446.247C475.324 456.068 476.639 461.557 483.724 468.837" fill="#404597"/>
<path d="M474.868 469.023C471.181 448.01 464.49 424.557 438.847 416.24C437.751 426.979 439.396 437.821 443.629 447.752C447.996 457.563 454.924 464.143 464.49 469.023" fill="#404597"/>
<path d="M490.439 469.764C488.496 469.589 486.577 469.206 484.717 468.619C484.455 468.578 484.204 468.483 483.979 468.342C483.755 468.201 483.561 468.016 483.41 467.798C483.233 467.312 483.241 466.778 483.432 466.298C483.998 464.138 484.181 461.23 482.156 460.292C480.204 459.387 478.138 461.238 476.84 462.952C475.463 464.772 473.859 468.57 472.65 470.505C473.123 468.682 473.123 464.762 472.156 463.151C471.738 462.368 471.056 461.759 470.23 461.432C469.397 461.288 468.54 461.418 467.787 461.803C467.034 462.187 466.426 462.805 466.054 463.564C465.177 465.007 464.783 466.708 463.859 468.119C462.641 465.133 462.698 461.804 462.224 458.614C461.516 453.907 459.64 449.453 456.767 445.658C455.272 443.688 453.234 441.788 450.762 441.769C447.893 441.749 445.557 444.436 445.084 447.264C444.811 450.139 445.412 453.029 446.808 455.557C448.775 459.734 451.401 463.567 454.586 466.91C452.544 466.688 450.663 465.694 449.331 464.13C448.007 462.568 446.218 461.47 444.226 460.995C442.205 460.77 439.908 462.706 440.65 464.6C440.91 465.261 441.47 465.764 441.766 466.409C442.063 467.053 441.924 468.022 441.232 468.192C440.867 468.235 440.498 468.154 440.184 467.963C438.344 467.037 436.378 466.385 434.349 466.027C430.479 465.467 422.255 468.569 418.531 469.764" fill="#6A6FC4"/>
<path d="M284.645 183.886C284.645 181.747 280.205 177.179 278.226 176.351C272.807 174.086 266.581 174.672 260.949 176.344C258.041 177.106 255.305 178.42 252.892 180.213C250.467 182.035 248.846 184.727 248.369 187.722C248.249 188.869 248.241 190.025 248.346 191.174C248.92 198.878 248.92 201.847 246.546 206.138C246.546 206.138 243.971 212.237 225.661 217.185C207.352 222.133 203.395 235.003 207.841 252.807C212.286 270.61 235.551 270.123 239.509 268.144C243.468 266.165 246.932 269.628 248.912 271.113C250.891 272.599 260.129 276.68 267.057 272.722C267.057 272.722 254.849 232.027 256.333 231.037C257.817 230.047 268.21 224.605 270.189 223.121C271.171 222.29 272.38 221.773 273.659 221.638L284.645 183.886Z" fill="#394888"/>
<path d="M263.428 195.128C263.439 195.194 263.436 195.262 263.42 195.327C263.404 195.392 263.375 195.453 263.335 195.506C263.295 195.56 263.244 195.604 263.186 195.638C263.128 195.671 263.064 195.693 262.998 195.701C261.96 195.712 260.968 196.128 260.233 196.86C259.498 197.593 259.078 198.583 259.063 199.621C259.063 202.774 263.452 202.787 265.244 202.662C265.761 202.626 266.471 202.651 266.663 203.135C269.135 209.61 270.999 216.301 272.232 223.121C272.232 223.121 283.744 240.506 288.092 221.474C288.092 221.474 281.978 205.474 282.473 203.498C282.662 203.403 290.358 198.619 286.291 187.074C282.462 176.194 273.438 178.229 271.435 178.848C269.744 179.362 261.277 181.254 263.428 195.128Z" fill="#EBCDC1"/>
<path d="M282.755 203.302C280.771 204.299 278.615 204.911 276.403 205.105C278.768 206.622 281.237 206.765 281.902 205.769C282.373 205.023 282.665 204.179 282.755 203.302Z" fill="#DB877E"/>
<path d="M278.041 189.788C278.246 190.297 278.144 190.817 277.814 190.948C277.485 191.079 277.051 190.775 276.848 190.265C276.644 189.756 276.747 189.236 277.076 189.103C277.406 188.971 277.838 189.278 278.041 189.788Z" fill="#394888"/>
<path d="M282.691 187.463C282.896 187.973 282.793 188.493 282.463 188.624C282.134 188.755 281.7 188.45 281.497 187.941C281.293 187.432 281.396 186.911 281.725 186.779C282.055 186.647 282.487 186.954 282.691 187.463Z" fill="#394888"/>
<path d="M282.517 184.504C282.041 184.47 281.562 184.511 281.098 184.625C280.626 184.809 280.17 185.03 279.734 185.287C279.64 184.952 279.683 184.593 279.853 184.289C280.024 183.986 280.308 183.762 280.644 183.668L280.901 183.595C281.067 183.549 281.24 183.535 281.411 183.555C281.583 183.576 281.748 183.629 281.899 183.714C282.049 183.798 282.182 183.911 282.288 184.047C282.395 184.182 282.474 184.338 282.52 184.504H282.517Z" fill="#394888"/>
<path d="M275.621 186.43C275.198 186.667 274.793 186.934 274.411 187.232C274.101 187.625 273.822 188.041 273.575 188.477C273.329 188.231 273.191 187.897 273.191 187.548C273.191 187.2 273.329 186.866 273.575 186.62L273.764 186.43C273.886 186.309 274.031 186.212 274.19 186.146C274.349 186.08 274.52 186.046 274.693 186.046C274.865 186.046 275.036 186.08 275.195 186.146C275.354 186.212 275.499 186.309 275.621 186.43Z" fill="#394888"/>
<path d="M263.257 200.737C263.069 200.844 262.863 200.914 262.649 200.942C262.435 200.969 262.217 200.955 262.009 200.898C261.8 200.842 261.605 200.745 261.434 200.613C261.263 200.481 261.12 200.317 261.012 200.13C260.905 199.943 260.835 199.736 260.808 199.522C260.78 199.308 260.795 199.091 260.851 198.882C260.908 198.674 261.005 198.479 261.136 198.308C261.268 198.137 261.432 197.994 261.62 197.886" fill="#DB877E"/>
<path d="M284.08 191.795L278.464 194.802C278.464 194.802 280.804 197.074 283.077 195.604C283.401 195.429 283.686 195.188 283.914 194.898C284.142 194.607 284.309 194.273 284.403 193.917C284.496 193.56 284.516 193.187 284.461 192.822C284.405 192.457 284.276 192.108 284.08 191.795Z" fill="white"/>
<path d="M276.458 195.671C276.458 195.406 276.38 195.148 276.233 194.928C276.086 194.708 275.877 194.536 275.632 194.435C275.388 194.334 275.119 194.308 274.859 194.359C274.6 194.411 274.362 194.539 274.175 194.726C273.988 194.913 273.86 195.151 273.809 195.411C273.757 195.67 273.784 195.939 273.886 196.183C273.987 196.428 274.159 196.636 274.379 196.783C274.599 196.93 274.858 197.008 275.122 197.008C275.298 197.008 275.472 196.973 275.634 196.906C275.796 196.839 275.943 196.74 276.067 196.616C276.191 196.492 276.29 196.344 276.357 196.182C276.424 196.02 276.458 195.846 276.458 195.671Z" fill="#E5B29F"/>
<path d="M286.753 190.596C286.753 190.332 286.675 190.073 286.528 189.854C286.381 189.634 286.172 189.462 285.927 189.361C285.683 189.26 285.414 189.233 285.155 189.285C284.895 189.337 284.657 189.464 284.47 189.651C284.283 189.838 284.156 190.076 284.104 190.336C284.052 190.595 284.079 190.864 284.18 191.108C284.281 191.353 284.453 191.561 284.673 191.708C284.893 191.855 285.151 191.934 285.416 191.934C285.77 191.934 286.111 191.793 286.361 191.542C286.612 191.291 286.753 190.951 286.753 190.596Z" fill="#E5B29F"/>
<path d="M280.181 192.918L280.024 189.606L282.646 191.67" fill="#DB877E"/>
<path d="M271.662 177.61C271.94 177.553 276.441 192.159 262.529 195.551C262.529 195.551 257.248 180.549 271.662 177.61Z" fill="#394888"/>
<path d="M267.347 177.372C267.347 177.372 279.437 181.497 283.799 181.402C283.799 181.402 275.122 170.413 267.347 177.372Z" fill="#394888"/>
<path d="M201.99 248.874C201.99 248.874 198.153 244.735 199.309 244.155C200.465 243.574 204.166 247.939 207.77 248.885C207.773 248.89 203.034 249.801 201.99 248.874Z" fill="#DB877E"/>
<path d="M235.658 271.995L212.397 250.791C211.124 249.638 209.489 248.965 207.773 248.89C204.196 248.723 200.433 249.29 195.439 245.665C188.247 240.446 196.905 254.191 203.981 256.279C205.422 256.155 206.873 256.273 208.274 256.627C210.13 257.207 231.339 288.138 243.982 289.531C243.988 289.531 237.207 276.639 235.658 271.995Z" fill="#EBCDC1"/>
<path d="M337.966 236.102C337.966 236.102 356.187 213.884 362.382 206.723C368.577 199.561 374.223 186.771 380.61 181.88C380.61 181.88 385.025 178.176 376.948 192.074C376.948 192.074 383.705 193.84 382.696 196.254C381.687 198.668 381.657 205.658 375.326 205.496C375.326 205.496 354.519 242.373 344.574 250.678C343.645 251.454 341.699 253.843 342.167 252.55L337.966 236.102Z" fill="#EBCDC1"/>
<path d="M286.487 215.195C286.487 215.195 304.203 237.472 304.727 244.796C305.25 252.121 305.214 274.617 305.738 275.664H268.1C268.1 275.664 254.558 234.618 256.65 225.206C256.65 225.206 267.576 220.212 270.192 219.687C270.192 219.678 287.288 235.908 286.487 215.195Z" fill="#C03B81"/>
<path d="M256.843 225.031C255.515 225.752 254.425 226.843 253.704 228.17C252.657 230.263 235.39 271.594 235.39 271.594C235.39 271.594 241.146 287.29 244.285 288.335C247.423 289.381 260.352 250.249 260.352 250.249C260.352 250.249 255.274 227.652 256.843 225.031Z" fill="#C03B81" stroke="#C03B81" stroke-width="0.332" stroke-miterlimit="10"/>
<path d="M286.884 215.321C286.884 215.321 294.44 214.165 297.579 216.258C300.719 218.35 337.421 236.308 337.421 236.308C339.111 236.308 341.57 246.613 342.552 252.165C342.598 252.433 342.573 252.708 342.481 252.964C342.389 253.22 342.232 253.448 342.025 253.625C341.819 253.802 341.57 253.923 341.303 253.976C341.036 254.029 340.76 254.012 340.502 253.926C332.101 251.119 304.605 241.849 303.937 240.559C303.946 240.559 287.422 218.262 286.884 215.321Z" fill="#C03B81" stroke="#C03B81" stroke-width="0.332" stroke-miterlimit="10"/>
<path d="M376.73 192.096C376.386 192.044 373.123 196.011 373.472 196.707C373.82 197.402 376.378 203.793 378.485 203.329C380.29 202.927 381.193 200.772 382.445 196.962C382.445 196.957 383.691 193.14 376.73 192.096Z" fill="#DB877E"/>
<path d="M376.911 192.194C376.568 192.142 374.011 195.672 374.36 196.369C374.708 197.066 376.725 202.203 378.536 202.322C380.412 202.44 382.346 200.114 382.896 196.188C382.896 196.188 383.873 193.236 376.911 192.194Z" fill="#EBCDC1"/>
<path d="M369.547 196.543C369.547 196.543 378.246 196.194 377.665 197.818C377.085 199.442 367.342 200.486 367.342 200.486" fill="#EBCDC1"/>
<path d="M369.547 196.543C369.547 196.543 378.246 196.194 377.665 197.818C377.085 199.442 367.342 200.486 367.342 200.486" stroke="#DB877E" stroke-width="0.382" stroke-miterlimit="10"/>
<path d="M259.614 245.131L268.445 276.009H300.131L259.614 245.131Z" fill="#9F336D"/>
<path d="M260.62 250.65C259.659 260.268 246.641 286.721 246.641 286.721L259.517 243.691C260.385 245.903 260.761 248.278 260.62 250.65Z" fill="#9F336D"/>
<path d="M304.178 241.138L298.726 221.187L317.054 246.239L304.178 241.138Z" fill="#9F336D"/>
<path d="M339.162 237.912L345.713 249.008C345.713 249.008 346.096 250.627 342.906 252.477L339.162 237.912Z" fill="#DB877E"/>
<path d="M259.814 244.73C265.795 244.73 270.643 239.882 270.643 233.902C270.643 227.922 265.795 223.074 259.814 223.074C253.833 223.074 248.984 227.922 248.984 233.902C248.984 239.882 253.833 244.73 259.814 244.73Z" fill="#CC6BA1"/>
<path d="M304.231 244.73C304.219 244.666 304.213 244.604 304.203 244.541C302.606 238.771 301.005 233.002 299.287 227.267C297.403 227.569 295.599 228.252 293.988 229.274C292.376 230.297 290.99 231.637 289.914 233.214C288.838 234.79 288.095 236.569 287.731 238.443C287.366 240.316 287.387 242.244 287.793 244.109C288.199 245.973 288.981 247.736 290.092 249.288C291.202 250.84 292.617 252.15 294.251 253.136C295.885 254.123 297.703 254.766 299.594 255.026C301.485 255.287 303.409 255.159 305.249 254.65C305.226 251.318 304.885 247.997 304.231 244.73Z" fill="#CC6BA1"/>
<path d="M278.062 281.823C283.821 281.823 288.489 277.155 288.489 271.397C288.489 265.639 283.821 260.971 278.062 260.971C272.303 260.971 267.634 265.639 267.634 271.397C267.634 277.155 272.303 281.823 278.062 281.823Z" fill="#CC6BA1"/>
<path d="M334.073 247.403C340.755 245.82 344.889 239.121 343.306 232.44C341.723 225.759 335.023 221.626 328.341 223.209C321.659 224.792 317.526 231.491 319.108 238.172C320.691 244.853 327.391 248.985 334.073 247.403Z" fill="#CC6BA1"/>
<path d="M241.164 281.825C249.36 281.825 256.004 275.182 256.004 266.987C256.004 258.792 249.36 252.149 241.164 252.149C232.968 252.149 226.324 258.792 226.324 266.987C226.324 275.182 232.968 281.825 241.164 281.825Z" fill="#CC6BA1"/>
<path d="M277.723 453.452L278.767 457.867C278.767 457.867 280.39 460.767 281.434 460.998C283.334 461.421 286.539 457.52 286.539 457.52L286.944 453.228L277.723 453.452Z" fill="#D29389"/>
<path d="M286.638 457.304C286.638 457.304 288.03 457.189 288.262 457.652C288.461 458.048 289.754 465.608 290.131 467.829C290.144 467.904 290.14 467.981 290.12 468.055C290.1 468.128 290.064 468.196 290.015 468.254C289.966 468.313 289.905 468.359 289.836 468.391C289.767 468.423 289.692 468.44 289.615 468.439H263.687C263.369 468.44 263.062 468.318 262.831 468.1C262.599 467.881 262.46 467.583 262.441 467.265C262.427 467.027 262.482 466.789 262.598 466.581C262.715 466.373 262.888 466.203 263.099 466.09L278.869 457.652C278.869 457.652 280.03 460.204 281.538 460.784C283.045 461.364 286.638 457.304 286.638 457.304Z" fill="white"/>
<path d="M271.113 275.658C271.113 275.658 265.78 278.718 258.588 303.076C251.397 327.433 261.372 379.625 261.372 379.625C262.558 383.236 263.317 386.972 263.633 390.759C263.924 396.095 263.692 437.963 274.597 453.737H291.52C291.52 453.737 290.836 413.029 285.733 387.511C285.733 387.511 285.715 334.158 288.642 322.559L290.692 321.538C290.692 321.538 303.597 370.577 306.381 381.711C309.164 392.845 296.868 430.435 302.438 454.087H321.085C321.085 454.087 332.831 394.466 330.975 378.692C329.119 362.917 325.902 322.002 303.033 275.653L271.113 275.658Z" fill="#141753"/>
<path d="M291.399 450.156C284.498 450.03 280.151 450.483 273.25 450.357" stroke="#394888" stroke-width="0.083" stroke-linecap="round" stroke-linejoin="round" stroke-dasharray="4.59 4.59"/>
<path d="M285.726 387.512C285.726 387.512 285.709 334.159 288.636 322.56L290.686 321.54C290.686 321.54 303.591 370.578 306.375 381.712C309.158 392.846 296.862 430.436 302.432 454.088H321.079C321.079 454.088 332.825 394.467 330.969 378.693C329.113 362.918 325.895 322.003 303.027 275.654H271.113C271.113 275.654 265.78 278.715 258.588 303.072C251.397 327.429 261.372 379.622 261.372 379.622C262.558 383.232 263.317 386.969 263.633 390.755" fill="#141753"/>
<path d="M305.236 454.067L305.04 457.682C305.04 457.682 307.1 464.679 309.456 462.689C311.007 461.256 312.417 459.677 313.667 457.976L314.793 454.092L305.236 454.067Z" fill="#D29389"/>
<path d="M305.141 458.085L303.981 458.004C303.842 457.995 303.706 458.04 303.601 458.131C303.496 458.222 303.432 458.351 303.422 458.49L302.803 467.383C302.797 467.455 302.807 467.527 302.831 467.594C302.855 467.662 302.892 467.724 302.941 467.777C302.99 467.829 303.05 467.871 303.116 467.9C303.182 467.928 303.253 467.943 303.325 467.943H328.289C328.452 467.943 328.613 467.91 328.762 467.845C328.911 467.781 329.045 467.687 329.157 467.569C329.268 467.451 329.355 467.311 329.41 467.158C329.466 467.006 329.489 466.843 329.48 466.681C329.469 466.498 329.415 466.321 329.324 466.162C329.232 466.003 329.106 465.867 328.953 465.765L314.884 456.35C314.884 456.35 310.186 461.918 308.679 461.918C307.171 461.918 305.141 458.085 305.141 458.085Z" fill="white"/>
<path d="M301.626 449.455C310.35 449.455 313.259 449.756 321.882 450.055" stroke="#394888" stroke-width="0.083" stroke-linecap="round" stroke-linejoin="round" stroke-dasharray="4.59 4.59"/>
<path d="M274.654 276.411C274.654 276.411 262.334 291.614 262.22 310.9C261.818 378.873 277.723 453.444 277.723 453.444" stroke="#F3FAF9" stroke-width="0.191" stroke-linecap="round" stroke-linejoin="round" stroke-dasharray="4.59 4.59"/>
<path d="M299.321 276.218C299.321 276.218 326.996 344.592 327.196 378.679C329.001 388.905 317.17 453.671 317.17 453.671" stroke="#F3FAF9" stroke-width="0.191" stroke-linecap="round" stroke-linejoin="round" stroke-dasharray="4.59 4.59"/>
<g style="mix-blend-mode:multiply" opacity="0.51">
<path d="M303.025 275.658L259.913 299.468C259.913 299.468 263.35 284.526 271.11 275.658H303.025Z" fill="#394888"/>
</g>
<path d="M221.794 228.527C232.916 217.407 232.916 199.378 221.794 188.258C210.672 177.138 192.641 177.138 181.519 188.258C170.398 199.378 170.398 217.407 181.519 228.527C192.641 239.647 210.672 239.647 221.794 228.527Z" fill="#141753"/>
<path d="M205.973 234.27C220.978 234.27 233.141 222.108 233.141 207.106C233.141 192.104 220.978 179.942 205.973 179.942C190.969 179.942 178.805 192.104 178.805 207.106C178.805 222.108 190.969 234.27 205.973 234.27Z" fill="#DA82B4" stroke="#DA82B4" stroke-width="1.62" stroke-miterlimit="10"/>
<path d="M205.973 228.396C217.733 228.396 227.267 218.864 227.267 207.106C227.267 195.347 217.733 185.816 205.973 185.816C194.213 185.816 184.68 195.347 184.68 207.106C184.68 218.864 194.213 228.396 205.973 228.396Z" stroke="white" stroke-width="0.413" stroke-miterlimit="10"/>
<path d="M205.035 202.627C205.035 202.122 204.857 201.698 204.501 201.352C204.15 201.007 203.555 200.694 202.716 200.415C201.549 200.059 200.696 199.595 200.159 199.025C199.627 198.45 199.362 197.721 199.362 196.838C199.362 195.939 199.622 195.202 200.143 194.626C200.669 194.051 201.39 193.708 202.305 193.598V191.798H203.53V193.607C204.451 193.733 205.167 194.119 205.677 194.766C206.192 195.413 206.45 196.298 206.45 197.422H204.937C204.937 196.649 204.753 196.035 204.386 195.58C204.018 195.125 203.522 194.897 202.897 194.897C202.245 194.897 201.746 195.067 201.401 195.407C201.055 195.742 200.883 196.21 200.883 196.813C200.883 197.372 201.064 197.819 201.425 198.154C201.793 198.483 202.393 198.784 203.226 199.058C204.065 199.327 204.717 199.626 205.183 199.954C205.655 200.278 206 200.656 206.219 201.089C206.444 201.522 206.556 202.029 206.556 202.61C206.556 203.537 206.277 204.282 205.718 204.847C205.164 205.412 204.386 205.746 203.382 205.85V207.421H202.166V205.85C201.146 205.757 200.346 205.395 199.765 204.765C199.189 204.129 198.901 203.268 198.901 202.183H200.422C200.422 202.945 200.622 203.531 201.023 203.942C201.423 204.354 201.99 204.559 202.725 204.559C203.443 204.559 204.007 204.386 204.419 204.041C204.83 203.696 205.035 203.224 205.035 202.627Z" fill="white"/>
<path d="M331.327 106.92C337.46 104.394 340.383 97.3755 337.857 91.2439C335.33 85.1123 328.311 82.1894 322.178 84.7154C316.046 87.2414 313.122 94.2598 315.649 100.391C318.175 106.523 325.195 109.446 331.327 106.92Z" fill="#141753"/>
<path d="M339.727 97.8989C341.177 91.7403 337.358 85.5731 331.199 84.124C325.039 82.6748 318.871 86.4926 317.422 92.6511C315.973 98.8097 319.791 104.977 325.95 106.426C332.11 107.875 338.278 104.057 339.727 97.8989Z" fill="#DA82B4" stroke="#DA82B4" stroke-width="0.683" stroke-miterlimit="10"/>
<path d="M337.553 95.2747C337.553 97.0505 337.026 98.7864 336.04 100.263C335.053 101.739 333.651 102.89 332.01 103.57C330.369 104.249 328.563 104.427 326.821 104.081C325.08 103.734 323.48 102.879 322.224 101.623C320.968 100.368 320.113 98.7679 319.766 97.0263C319.42 95.2847 319.597 93.4794 320.277 91.8388C320.957 90.1982 322.108 88.796 323.584 87.8095C325.061 86.8229 326.797 86.2963 328.573 86.2963C330.955 86.2963 333.239 87.2423 334.923 88.926C336.607 90.6098 337.553 92.8935 337.553 95.2747V95.2747Z" stroke="white" stroke-width="0.174" stroke-miterlimit="10"/>
<path d="M328.179 92.6405C328.179 92.4278 328.104 92.2487 327.954 92.103C327.806 91.9574 327.555 91.8256 327.202 91.7077C326.709 91.5574 326.35 91.3621 326.123 91.1216C325.899 90.8789 325.787 90.5714 325.787 90.1992C325.787 89.8201 325.896 89.5091 326.116 89.2664C326.338 89.0236 326.642 88.8792 327.028 88.8329V88.0735H327.545V88.8364C327.933 88.8896 328.235 89.0525 328.45 89.3253C328.667 89.5981 328.776 89.9715 328.776 90.4454H328.138C328.138 90.1195 328.06 89.8605 327.905 89.6687C327.751 89.4768 327.541 89.3808 327.278 89.3808C327.003 89.3808 326.792 89.4525 326.647 89.5958C326.501 89.7369 326.428 89.9345 326.428 90.1888C326.428 90.4246 326.504 90.613 326.657 90.7541C326.812 90.8928 327.065 91.0199 327.417 91.1355C327.77 91.2488 328.045 91.3748 328.242 91.5135C328.441 91.6499 328.586 91.8094 328.679 91.9921C328.774 92.1747 328.821 92.3885 328.821 92.6336C328.821 93.0243 328.703 93.3387 328.467 93.5768C328.234 93.815 327.905 93.956 327.482 93.9999V94.6622H326.969V93.9999C326.539 93.9606 326.202 93.808 325.957 93.5422C325.714 93.274 325.592 92.911 325.592 92.4533H326.234C326.234 92.7746 326.318 93.022 326.487 93.1954C326.656 93.3688 326.895 93.4555 327.205 93.4555C327.508 93.4555 327.746 93.3826 327.919 93.237C328.093 93.0913 328.179 92.8925 328.179 92.6405Z" fill="white"/>
</svg>
