<svg width="53" height="57" viewBox="0 0 53 57" fill="none" xmlns="http://www.w3.org/2000/svg">
<rect x="2.19745" y="27.686" width="15.1446" height="28.5075" fill="#141753"/>
<path d="M23.2286 49.7407C34.8425 49.7407 44.2569 40.3244 44.2563 28.7089C44.2556 17.0935 34.8401 7.67725 23.2263 7.67725C11.6124 7.67725 2.19798 17.0935 2.19864 28.7089C2.1993 40.3244 11.6147 49.7407 23.2286 49.7407Z" fill="#141753"/>
<path d="M33.5802 44.7094C43.8622 40.5781 48.8479 28.895 44.716 18.6145C40.5841 8.334 28.8993 3.34906 18.6173 7.48034C8.33524 11.6116 3.34956 23.2947 7.48146 33.5752C11.6134 43.8557 23.2982 48.8407 33.5802 44.7094Z" fill="#DA82B4" stroke="#DA82B4" stroke-width="4.03" stroke-miterlimit="10"/>
<path d="M41.6174 28.6407C43.0233 20.0714 37.2152 11.985 28.6446 10.5793C20.074 9.17353 11.9864 14.9808 10.5805 23.5501C9.17454 32.1194 14.9826 40.2058 23.5532 41.6115C32.1238 43.0173 40.2114 37.21 41.6174 28.6407Z" stroke="white" stroke-width="1.026" stroke-miterlimit="10"/>
<path d="M25.3702 22.6668C25.3702 22.2943 25.2387 21.9805 24.9755 21.7255C24.7164 21.4704 24.2771 21.2397 23.6577 21.0332C22.7954 20.77 22.1658 20.4279 21.7691 20.0069C21.3764 19.5818 21.18 19.0433 21.18 18.3915C21.18 17.7276 21.3723 17.1831 21.757 16.758C22.1456 16.3329 22.678 16.0798 23.3541 15.9989V14.6689H24.2589V16.005C24.9391 16.0981 25.4674 16.3835 25.8439 16.8612C26.2245 17.3389 26.4148 17.9928 26.4148 18.8227H25.2974C25.2974 18.2519 25.1617 17.7984 24.8905 17.4624C24.6192 17.1264 24.2529 16.9584 23.7913 16.9584C23.3096 16.9584 22.9411 17.0839 22.6861 17.3349C22.431 17.5818 22.3035 17.928 22.3035 18.3733C22.3035 18.7863 22.4371 19.1162 22.7043 19.3632C22.9755 19.6061 23.4189 19.8288 24.0342 20.0312C24.6537 20.2296 25.1354 20.4502 25.4795 20.6931C25.8277 20.932 26.0828 21.2113 26.2447 21.5312C26.4107 21.851 26.4937 22.2255 26.4937 22.6546C26.4937 23.3388 26.2872 23.8894 25.8743 24.3064C25.4654 24.7234 24.8905 24.9704 24.1496 25.0473V26.2072H23.2508V25.0473C22.4978 24.9785 21.9067 24.7113 21.4776 24.2457C21.0525 23.776 20.84 23.1404 20.84 22.3388H21.9634C21.9634 22.9016 22.1112 23.3348 22.4067 23.6384C22.7023 23.942 23.1213 24.0939 23.6638 24.0939C24.1941 24.0939 24.6111 23.9663 24.9148 23.7113C25.2184 23.4562 25.3702 23.108 25.3702 22.6668Z" fill="white"/>
<circle cx="41.5526" cy="50.9391" r="5.93906" fill="#DA82B4"/>
</svg>
